<?xml version="1.0" encoding="utf-8"?>
<!-- Generator: Adobe Illustrator 23.0.1, SVG Export Plug-In . SVG Version: 6.00 Build 0)  -->
<svg version="1.1" id="Layer_1" xmlns="http://www.w3.org/2000/svg" xmlns:xlink="http://www.w3.org/1999/xlink" x="0px" y="0px"
	 viewBox="0 0 100 100" style="enable-background:new 0 0 100 100;" xml:space="preserve">
<path d="M86.41,83.59c0.78,0.78,0.78,2.05,0,2.83C86.02,86.8,85.51,87,85,87s-1.02-0.2-1.41-0.59L50,52.83L16.41,86.41
	C16.02,86.8,15.51,87,15,87s-1.02-0.2-1.41-0.59c-0.78-0.78-0.78-2.05,0-2.83L47.17,50L13.59,16.41c-0.78-0.78-0.78-2.05,0-2.83
	c0.78-0.78,2.05-0.78,2.83,0L50,47.17l33.59-33.59c0.78-0.78,2.05-0.78,2.83,0c0.78,0.78,0.78,2.05,0,2.83L52.83,50L86.41,83.59z"/>
</svg>
